<?xml version="1.0" encoding="UTF-8"?>
<svg xmlns="http://www.w3.org/2000/svg" xmlns:xlink="http://www.w3.org/1999/xlink" width="3000pt" height="2999.999989pt" viewBox="0 0 3000 2999.999989" version="1.2">
<defs>
<clipPath id="clip1">
  <path d="M 197 221.292969 L 2800 221.292969 L 2800 2777 L 197 2777 Z M 197 221.292969 "/>
</clipPath>
</defs>
<g id="surface1">
<path style=" stroke:none;fill-rule:nonzero;fill:rgb(97.648621%,85.879517%,5.879211%);fill-opacity:1;" d="M 275.839844 1861.71875 C 275.839844 1861.148438 275.691406 1860.449219 275.691406 1859.882812 C 275.648438 1859.796875 275.628906 1859.734375 275.585938 1859.648438 L 275.839844 1861.71875 "/>
<g clip-path="url(#clip1)" clip-rule="nonzero">
<path style=" stroke:none;fill-rule:nonzero;fill:rgb(97.648621%,85.879517%,5.879211%);fill-opacity:1;" d="M 2003.566406 2335.289062 C 2000.402344 2336.324219 1995.671875 2337.039062 1994.386719 2336.914062 C 1993.480469 2336.789062 1992.488281 2336.660156 1991.558594 2336.511719 C 2000.886719 2333.179688 2010.253906 2329.949219 2019.457031 2326.363281 C 2020.300781 2326.171875 2023.253906 2325.285156 2026.863281 2324.125 C 2022.347656 2326.53125 2017.832031 2328.980469 2013.421875 2331.46875 C 2011.097656 2332.714844 2006.792969 2334.214844 2003.566406 2335.289062 Z M 1541.050781 2403.074219 C 1516.828125 2400.414062 1492.730469 2396.785156 1468.757812 2392.480469 C 1479.222656 2392.25 1489.5 2391.785156 1499.015625 2390.601562 C 1504.546875 2389.632812 1510.074219 2388.789062 1515.644531 2388.007812 C 1558.417969 2393.410156 1602.015625 2396.320312 1646.289062 2396.320312 C 1677.035156 2396.320312 1707.421875 2394.824219 1737.449219 2392.164062 C 1727.761719 2396.703125 1718.183594 2401.195312 1708.960938 2405.503906 C 1653.0625 2408.878906 1596.910156 2408.078125 1541.050781 2403.074219 Z M 886.257812 2230.507812 L 881.296875 2225.316406 C 882.628906 2225.800781 883.726562 2225.761719 885.285156 2226.898438 C 886.679688 2227.933594 888.558594 2230.234375 890.203125 2231.964844 Z M 775.367188 1932.835938 C 756.691406 1913.464844 742.972656 1891.707031 724.761719 1861.71875 C 707.015625 1832.929688 695.875 1806.425781 680.492188 1784.855469 C 670.382812 1769.894531 660.972656 1752.144531 653.355469 1734.628906 L 654.304688 1736 L 653.777344 1734.988281 C 660.105469 1734.609375 667.386719 1738.554688 676.503906 1753.347656 C 691.824219 1774.347656 708.175781 1793.699219 723.917969 1816.746094 C 725.628906 1819.46875 727.550781 1821.746094 729.363281 1824.277344 C 754.054688 1874.632812 780.578125 1923.234375 812.082031 1968.546875 C 801.28125 1959.765625 788.703125 1946.808594 775.367188 1932.835938 Z M 1007.109375 592.757812 L 1009.726562 593.074219 L 1002.886719 596.851562 Z M 1079.257812 532.316406 L 1084.257812 531.8125 L 1073.410156 539.617188 C 1071.765625 539.808594 1068.261719 540.441406 1068.746094 540.0625 C 1071.914062 537.742188 1075.691406 534.957031 1079.257812 532.316406 Z M 1143.808594 481.730469 C 1145.664062 479.664062 1150.9375 476.390625 1156.277344 473.691406 C 1186.515625 457.398438 1201.648438 447.773438 1206.902344 438.445312 C 1208.757812 435.050781 1216.125 430.34375 1223.046875 425.933594 C 1226.105469 423.992188 1234.230469 420.742188 1239.882812 419.328125 C 1244.378906 418.230469 1251.027344 418.292969 1252.269531 419.222656 C 1254.613281 420.867188 1253.683594 423.503906 1253.515625 422.660156 C 1255.859375 426.820312 1256.640625 428.234375 1257.378906 429.542969 C 1259.171875 435.007812 1248.664062 442.476562 1229.25 450.984375 C 1208.0625 459.699219 1186.222656 468.878906 1166.195312 481.054688 C 1156.890625 486.183594 1141.296875 491.4375 1140.558594 489.625 C 1139.753906 487.660156 1141 484.832031 1143.808594 481.730469 Z M 2526.917969 881.292969 C 2548.207031 914.953125 2574.605469 950.007812 2592.207031 1004.769531 C 2600.648438 1031.234375 2612.695312 1055.632812 2620.988281 1077.789062 C 2622.550781 1082.582031 2623.839844 1087.476562 2625.25 1092.332031 C 2618.289062 1075.152344 2610.585938 1055.039062 2602.460938 1033.21875 C 2595.222656 1013.886719 2584.652344 995.527344 2576.421875 977.378906 C 2565.640625 954.945312 2555.363281 932.238281 2541.414062 911.46875 C 2530.90625 894.757812 2520.648438 877.851562 2509.929688 861.242188 C 2515.5 867.804688 2521.050781 874.371094 2526.917969 881.292969 Z M 2267.933594 645.457031 C 2283.652344 656.894531 2299.816406 669.175781 2315.769531 683.949219 C 2306.484375 674.789062 2280.59375 652.609375 2279.792969 651.808594 C 2279.621094 651.386719 2284.75 654.277344 2290.785156 659.257812 C 2296.714844 664.363281 2304.207031 670.757812 2310.074219 675.804688 C 2327.734375 690.765625 2344.171875 704.714844 2361.433594 719.339844 C 2377.15625 735.503906 2393.574219 752.578125 2412.25 772.667969 C 2420.773438 781.617188 2432.191406 794.070312 2427.589844 787.632812 C 2425.902344 785.417969 2416.828125 775.414062 2410.664062 768.746094 C 2401.761719 759.246094 2392.519531 749.371094 2383.589844 739.832031 C 2380.765625 736.792969 2376.859375 732.023438 2376.839844 731.644531 C 2376.816406 731.304688 2380.636719 734.808594 2383.65625 737.976562 C 2394.902344 749.8125 2406.234375 761.71875 2417.542969 773.640625 C 2417.691406 773.808594 2417.902344 774.0625 2418.03125 774.1875 C 2418.113281 774.292969 2418.179688 774.292969 2418.261719 774.378906 C 2419.359375 775.539062 2420.4375 776.679688 2421.511719 777.820312 C 2428.097656 784.277344 2433.816406 791.453125 2439.363281 798.773438 L 2456.308594 820.46875 C 2467.027344 834.019531 2477.515625 847.292969 2486.546875 858.730469 C 2495.222656 870.382812 2501.574219 880.765625 2506.488281 886.925781 C 2511.746094 893.847656 2518.222656 903.34375 2525.863281 915.035156 C 2533.226562 926.898438 2543.082031 940.214844 2550.675781 957.179688 C 2559.011719 973.8125 2567.304688 990.355469 2575.597656 1006.882812 C 2579.628906 1015.175781 2584.1875 1023.257812 2587.773438 1031.71875 L 2597.714844 1057.46875 C 2601.679688 1067.765625 2603.792969 1072.304688 2603.960938 1071.375 C 2604.148438 1070.46875 2601.933594 1063.734375 2598.601562 1054.324219 C 2597.566406 1051.433594 2596.320312 1048.035156 2595.285156 1045.183594 L 2589.316406 1029.589844 C 2587.121094 1024.480469 2584.417969 1019.605469 2582.035156 1014.605469 C 2577.097656 1004.6875 2572.179688 994.789062 2567.261719 984.933594 C 2562.390625 975.078125 2557.535156 965.242188 2552.683594 955.449219 L 2545.445312 940.742188 L 2536.855469 926.8125 C 2525.417969 908.242188 2514.066406 889.734375 2502.734375 871.265625 C 2499.863281 866.667969 2497.164062 861.960938 2494.144531 857.445312 L 2484.394531 844.421875 L 2464.898438 818.359375 C 2456.371094 807.007812 2447.339844 794.996094 2438.265625 782.90625 C 2428.390625 771.46875 2417.863281 760.429688 2408.195312 749.5625 C 2407.351562 748.546875 2406.402344 747.578125 2405.539062 746.5625 C 2412.882812 750.40625 2422.125 756.714844 2432.378906 765.832031 C 2435.988281 769.652344 2439.679688 773.554688 2443.246094 777.332031 C 2455.464844 792.632812 2467.914062 808.738281 2480.324219 825.027344 C 2481.335938 826.71875 2482.390625 828.195312 2483.402344 829.945312 C 2485.554688 832.476562 2487.667969 834.96875 2489.820312 837.5 C 2490.9375 839 2492.097656 840.476562 2493.214844 841.976562 L 2502.417969 854.34375 L 2510.476562 867.449219 L 2526.640625 893.554688 C 2537.046875 911.175781 2549.347656 927.890625 2558.675781 946.523438 C 2571.039062 970.921875 2583.175781 995.929688 2594.464844 1019.796875 C 2602.546875 1039.191406 2608.960938 1059.324219 2616.242188 1079.015625 C 2623.183594 1098.851562 2631.097656 1118.289062 2635.210938 1138.675781 C 2635.65625 1140.511719 2636.121094 1142.367188 2636.5625 1144.226562 C 2637.722656 1152.117188 2638.628906 1160.117188 2639.285156 1168.199219 C 2636.414062 1158.195312 2633.101562 1146.273438 2630.296875 1136.648438 C 2627.953125 1128.585938 2627.785156 1128.777344 2628.816406 1132.894531 C 2632.574219 1147.097656 2636.160156 1160.664062 2639.8125 1174.402344 C 2639.960938 1176.472656 2640.234375 1178.476562 2640.339844 1180.546875 C 2639.960938 1194.367188 2639.601562 1207.199219 2639.222656 1220.75 C 2638.839844 1239.910156 2639.515625 1257.300781 2641.351562 1273.339844 C 2603.285156 1019.460938 2465.65625 797.128906 2267.933594 645.457031 Z M 818.960938 1973.652344 C 818.5625 1973.398438 818.203125 1973.1875 817.824219 1972.914062 C 798.367188 1945.160156 780.324219 1916.480469 763.84375 1886.976562 C 780.683594 1916.863281 799.125 1945.753906 818.960938 1973.652344 Z M 2110.277344 546.332031 C 2111.691406 546.605469 2113.234375 546.984375 2114.753906 547.34375 C 2117.09375 548.355469 2119.375 549.367188 2121.757812 550.402344 C 2135.664062 556.945312 2147.542969 564.816406 2162.570312 573.933594 C 2169.851562 578.492188 2177.257812 583.03125 2184.664062 587.628906 C 2184.875 587.90625 2185.105469 588.242188 2185.316406 588.539062 C 2160.988281 573.449219 2135.960938 559.371094 2110.277344 546.332031 Z M 2374.414062 712.859375 C 2383.867188 720.3125 2395.28125 731.664062 2405.011719 745.972656 C 2395.28125 734.683594 2385.003906 723.667969 2374.414062 712.859375 Z M 2789.277344 1590.933594 C 2784.804688 1577.53125 2783.433594 1553.621094 2780.289062 1535.703125 C 2777.585938 1521.394531 2776.277344 1504.933594 2771.320312 1496.21875 C 2765.050781 1485.074219 2759.734375 1470.132812 2754.628906 1453.355469 C 2741.796875 1411.234375 2725.929688 1387.257812 2706.746094 1382.320312 C 2700.289062 1380.632812 2693.410156 1387.425781 2685.855469 1407.835938 C 2678.554688 1427.503906 2671.378906 1448.714844 2664.394531 1470.429688 C 2664.859375 1466.628906 2665.386719 1461.292969 2666.019531 1453.523438 C 2666.96875 1441.8125 2667.898438 1426.933594 2667.773438 1417.878906 C 2667.710938 1413.847656 2666.992188 1416.804688 2666.441406 1420.730469 C 2664.921875 1431.554688 2663.445312 1455.59375 2661.96875 1474.734375 C 2662.074219 1475.535156 2662.203125 1476.167969 2662.328125 1476.675781 C 2662.160156 1477.246094 2661.96875 1477.773438 2661.78125 1478.363281 C 2661.738281 1478.492188 2661.675781 1478.660156 2661.632812 1478.785156 C 2661.652344 1478.363281 2661.652344 1477.921875 2661.675781 1477.5 C 2660.324219 1475.28125 2659.078125 1480.6875 2657.433594 1490.582031 C 2653.761719 1500.839844 2650.003906 1511.519531 2646.183594 1522.746094 C 2650.109375 1487.671875 2652.367188 1452.070312 2652.367188 1415.960938 C 2652.367188 1386.476562 2650.59375 1357.4375 2648 1328.609375 C 2651.101562 1342.285156 2654.078125 1355.390625 2656.988281 1368.222656 C 2660.578125 1382.785156 2665.09375 1384.769531 2670.074219 1379.238281 C 2675.8125 1372.90625 2678.765625 1358.894531 2678.472656 1332.410156 C 2678.238281 1313.519531 2677.816406 1295.140625 2680.476562 1277.898438 C 2682.921875 1234.421875 2679.738281 1190.652344 2669.609375 1148.109375 C 2656.925781 1100.457031 2644.8125 1053.921875 2625.863281 1006.671875 C 2614.382812 969.652344 2597.652344 936.160156 2580.726562 903.660156 C 2565.535156 870.277344 2544.726562 840.75 2525.164062 810.890625 C 2509.273438 784.46875 2489.566406 760.597656 2470.027344 735.316406 C 2460.488281 722.503906 2450.78125 709.484375 2440.839844 696.148438 C 2429.996094 683.503906 2418.917969 670.546875 2407.480469 657.1875 C 2385.933594 629.839844 2362.847656 607.046875 2340.289062 592.421875 C 2312.308594 571.867188 2280.886719 545.507812 2245.140625 521.597656 C 2208.464844 492.894531 2170.25 473.734375 2137.078125 459.464844 C 2118.742188 450.476562 2091.601562 437.625 2066.175781 426.523438 C 2036.929688 413.269531 2010.953125 401.347656 1985.121094 396.28125 C 1963.027344 390.582031 1940.640625 384.800781 1917.28125 378.765625 C 1893.898438 373.257812 1868.957031 369.796875 1843.023438 363.949219 C 1792.292969 351.035156 1755.300781 358.90625 1704.253906 351.964844 C 1691.574219 350.78125 1680.261719 352.046875 1667.558594 351.964844 C 1641.984375 352.027344 1616.851562 352.089844 1592.160156 352.175781 C 1567.578125 354.222656 1543.5625 357.640625 1520.117188 360.40625 C 1473 363.949219 1429.589844 379.378906 1388.125 389.085938 C 1372.53125 392.609375 1356.535156 399.785156 1340.078125 405.144531 C 1334.96875 406.875 1327.308594 408.414062 1320.515625 409.828125 C 1317.351562 410.503906 1313.277344 410.90625 1310.027344 411.117188 C 1306.757812 411.347656 1302.492188 411.558594 1301.292969 411.160156 C 1284.558594 405.3125 1286.265625 396.722656 1311.441406 385.496094 C 1356.558594 362.683594 1423.324219 349.453125 1481.671875 335.691406 C 1502.222656 332.652344 1526.660156 331.597656 1551.203125 330.246094 C 1570.214844 329.191406 1580.871094 326.34375 1584.183594 322.394531 C 1587.285156 318.640625 1589.820312 315.03125 1591.886719 311.570312 C 1594.25 307.519531 1605.707031 305.894531 1627.402344 308.277344 C 1658.316406 311.632812 1677.414062 311.886719 1681.570312 305.597656 C 1684.671875 300.890625 1703.222656 299.011719 1728.671875 305.324219 C 1768.109375 313.828125 1794.359375 316.71875 1802.949219 310.09375 C 1807.972656 305.765625 1824.242188 306.78125 1845.109375 311.695312 C 1875.390625 318.871094 1910.042969 326.214844 1937.328125 333.707031 C 1964.464844 341.410156 1986.261719 344.746094 2011.097656 350.359375 C 2016.480469 351.878906 2023.886719 353.988281 2029.859375 355.675781 L 2125.578125 390.476562 C 2155.773438 402.253906 2173.121094 408.203125 2186.792969 407.847656 C 2196.269531 408.121094 2174.640625 382.816406 2149.90625 366.566406 L 2117.539062 349.050781 C 2094.453125 336.789062 2071.808594 324.695312 2049.039062 313.808594 C 2025.40625 304.878906 2002.152344 296.121094 1979.171875 287.449219 C 1933.65625 268.414062 1885.480469 261.320312 1839.097656 248.703125 C 1812.953125 242.835938 1786.109375 240.933594 1758.550781 235.449219 C 1699.445312 222.089844 1642.320312 224.367188 1588.089844 221.289062 C 1533.855469 226.375 1481.164062 225.71875 1430.265625 237.453125 C 1405.640625 242.179688 1381.835938 246.761719 1357.316406 251.488281 C 1333.21875 257.753906 1308.445312 264.171875 1281.496094 271.175781 C 1266.683594 274.765625 1253.222656 279.050781 1240.960938 283.101562 C 1198.96875 301.671875 1160.222656 318.238281 1116.921875 339.511719 C 1074.085938 363.105469 1042.222656 380.601562 997.695312 409.808594 C 983.558594 418.378906 973.492188 427.664062 967.140625 434.457031 C 955.410156 446.214844 941.753906 458.136719 909.003906 479.03125 C 896.132812 486.878906 882.457031 496.734375 871.71875 505.070312 C 847.597656 522.839844 828.667969 544.8125 808.855469 563.59375 C 789.082031 582.523438 771.777344 602.023438 757.621094 622.558594 C 741.160156 645.792969 722.90625 667.171875 707.101562 692.242188 C 691.464844 717.441406 674.308594 743.1875 655.019531 771.191406 C 632.78125 811.667969 610.644531 849.550781 605.242188 878.0625 C 603.171875 889.140625 595.21875 908.03125 589.265625 923.984375 C 582.515625 942.726562 573.101562 962.964844 569.179688 981.367188 C 562.214844 1014.269531 552.675781 1045.882812 546.683594 1080.300781 C 542.421875 1115.144531 532.796875 1150.472656 528.453125 1190.78125 C 527.058594 1203.359375 526.46875 1214.796875 526.089844 1225.519531 C 520.347656 1316.539062 532.945312 1414.1875 552.929688 1487.714844 C 566.351562 1520.382812 570.886719 1567.339844 585.617188 1609.628906 C 593.148438 1646.835938 600.746094 1660.808594 609.292969 1663.953125 C 615.328125 1666 620.960938 1673.722656 628.371094 1679.210938 C 634.40625 1684.042969 639.703125 1697.761719 644.132812 1716.734375 L 643.226562 1715.023438 L 644.132812 1716.734375 L 618.050781 1709.390625 C 616.023438 1708.902344 616.550781 1714.8125 618.789062 1722.324219 C 619.675781 1725.28125 621.300781 1729.269531 622.1875 1730.386719 C 631.429688 1741.214844 638.054688 1750.730469 650.503906 1779.136719 C 657.109375 1792.769531 664.75 1801.804688 671.796875 1812.480469 L 696.949219 1850.890625 C 706.617188 1862.835938 716.324219 1874.84375 726.199219 1887.042969 C 730.757812 1892.761719 736.179688 1902.046875 741.179688 1910.085938 C 742.53125 1912.28125 744.875 1917.558594 744.957031 1918.738281 C 745.230469 1922.03125 745.761719 1926.84375 744.050781 1925.851562 C 740.714844 1923.910156 736.117188 1919.121094 731.644531 1914.246094 C 715.625 1895.695312 697.457031 1876.363281 680.640625 1855.785156 C 665.128906 1834.175781 649.535156 1812.460938 634.636719 1791.738281 C 627.3125 1782.871094 620.960938 1767.71875 615.160156 1754.066406 C 605.496094 1732.203125 594.816406 1711.519531 586.058594 1686.511719 C 576.523438 1645.507812 569.261719 1655.300781 560.84375 1636.179688 L 554.890625 1622.609375 C 540.945312 1593.78125 533.242188 1563.265625 523.554688 1532.75 C 512.878906 1502.316406 505.851562 1471.0625 500.449219 1439.257812 C 497.980469 1426.597656 494.730469 1415.285156 493.378906 1399.5 C 490.339844 1367.925781 491.671875 1341.125 489.5625 1313.667969 C 489.097656 1299.910156 488.589844 1286.042969 488.082031 1271.460938 C 489.347656 1256.984375 490.996094 1241.746094 493.359375 1225.160156 C 495.132812 1212.8125 494.222656 1203.464844 493.761719 1194.621094 C 493.402344 1187.996094 491.566406 1185.167969 490.828125 1179.40625 C 488.632812 1167.609375 494.097656 1148.867188 502.6875 1133.820312 C 507.222656 1126.246094 510.769531 1120.316406 515.453125 1112.464844 C 518.046875 1107.527344 522.417969 1097.375 523.300781 1093.152344 C 527.183594 1067.933594 534.066406 1044.402344 541.386719 1021.632812 C 542.082031 1019.226562 538.433594 1020.113281 536.300781 1023.46875 C 529.800781 1034.738281 521.742188 1047.527344 515.324219 1059.640625 C 509.269531 1072.429688 503.042969 1076.417969 504.628906 1066.203125 C 508.59375 1040.753906 514.988281 1018.699219 520.726562 993.777344 C 526.722656 968.894531 534.445312 941.796875 551.75 910.457031 C 560.378906 890.304688 568.925781 870.359375 577.132812 851.175781 C 586.628906 832.542969 595.726562 814.625 604.207031 797.996094 C 619.78125 763.785156 633.203125 734.789062 639.765625 713.8125 C 642.550781 703.40625 656.5 685.382812 675.363281 665.441406 C 684.140625 655.480469 691.253906 647.332031 693.511719 642.269531 C 697.289062 634.082031 697.5625 628.550781 701.972656 619.878906 C 706.277344 611.308594 710.644531 601.917969 720.710938 589.847656 C 746.097656 556.988281 772.117188 532.023438 795.011719 505.453125 C 817.484375 478.292969 842.21875 455.5 869.4375 431.039062 C 909.46875 392.144531 959.375 360.339844 1012.257812 325.964844 C 1024.582031 319.292969 1038.128906 311.972656 1049.292969 305.933594 C 1094.703125 279.367188 1077.949219 271.808594 1014.832031 291.835938 C 985.730469 299.898438 959.671875 313.828125 932.132812 328.664062 C 909.808594 341.707031 885.960938 352.320312 864.710938 367.683594 C 791.785156 412.40625 731.855469 463.5625 682.558594 515.496094 C 658.144531 544.640625 629.65625 572.792969 600.683594 605.398438 C 573.460938 639.125 548.351562 669.808594 528.28125 702.605469 C 504.3125 745.574219 476.265625 786.578125 457.546875 832.476562 L 426.949219 899.84375 L 402.726562 969.527344 C 387.828125 1008.402344 377.445312 1050.96875 369.933594 1089.058594 C 355.773438 1145.808594 353.8125 1205.933594 348.113281 1262.367188 C 349.84375 1319.492188 346.785156 1374.046875 357.738281 1422.226562 C 359.214844 1430.710938 360.226562 1442.109375 361.113281 1453.082031 C 363.011719 1491.996094 369.953125 1527.410156 378.5 1561.808594 C 385.949219 1596.355469 393.757812 1629.976562 406.1875 1664.3125 C 414.246094 1688.960938 422.035156 1712.808594 430.558594 1735.789062 C 441.066406 1758.035156 451.367188 1779.8125 461.535156 1801.339844 C 481.585938 1847.492188 509.25 1877.546875 536.40625 1931.949219 C 543.074219 1944.066406 550.480469 1949.574219 557.824219 1959.722656 C 585.742188 1998.027344 614.082031 2036.226562 647.425781 2070.265625 C 682.136719 2120.113281 717.738281 2145.015625 751.035156 2175.238281 C 780.851562 2200.539062 813.160156 2220.503906 842.238281 2240.703125 C 874.230469 2261.214844 913.753906 2283.269531 939.328125 2293.082031 C 944.5625 2294.875 953.296875 2300.953125 962.078125 2304.898438 C 988.582031 2318.28125 1007.296875 2324.292969 1027.410156 2331.53125 C 1066.574219 2347.277344 1109.875 2354.304688 1157.902344 2372.136719 C 1191.246094 2380.304688 1222.601562 2386.675781 1251.742188 2392.101562 C 1280.992188 2397.230469 1309.480469 2396.828125 1335.097656 2398.03125 C 1360.695312 2398.707031 1375.929688 2394.886719 1403.171875 2392.902344 C 1419.503906 2392.332031 1437.90625 2392.753906 1456.136719 2392.671875 L 1482.199219 2396.660156 C 1510.601562 2400.375 1538.730469 2406.769531 1567.492188 2406.957031 C 1596.128906 2408.117188 1624.765625 2410.566406 1653.378906 2410.652344 C 1669.394531 2409.953125 1685.390625 2409.238281 1701.386719 2408.5 C 1671.125 2421.140625 1632.421875 2429.75 1588.109375 2439.203125 C 1564.265625 2441.675781 1541.453125 2444.015625 1516.511719 2446.570312 C 1503.828125 2447.371094 1490.597656 2448.214844 1476.417969 2449.101562 C 1462.300781 2448.300781 1447.210938 2446.949219 1430.710938 2445.050781 C 1424.1875 2444.292969 1418.871094 2444.398438 1413.617188 2444.355469 C 1373.648438 2445.683594 1331.761719 2439.816406 1295.402344 2436.988281 C 1257.988281 2436.058594 1217.347656 2425.636719 1176.070312 2416.433594 C 1148.21875 2411.328125 1119.878906 2401.070312 1099.765625 2397.101562 C 1048.59375 2389.125 983.453125 2361.859375 916.664062 2325.8125 C 826.515625 2274.171875 746.308594 2220.566406 665.929688 2139.929688 C 639.617188 2113.339844 618.703125 2090.695312 593.847656 2063.324219 C 572.300781 2041.648438 558.015625 2018.246094 540.3125 1996.128906 C 519.820312 1970.316406 500.535156 1945.226562 484.074219 1916.96875 C 467.550781 1888.855469 446.828125 1860.894531 433.15625 1825.585938 C 424.757812 1806.320312 416.398438 1791.082031 408.128906 1774.769531 C 394.644531 1750.542969 385.296875 1726.589844 375.144531 1700.125 C 332.394531 1597.117188 311.566406 1485.414062 298.25 1373.054688 C 296.855469 1328.019531 292.214844 1280.808594 296.75 1229.527344 C 300.316406 1193.164062 304.855469 1153.765625 306.3125 1123.671875 C 313.441406 1078 321.441406 1022.011719 337.394531 970.644531 C 352.671875 919.300781 363.984375 871.648438 383.585938 825.304688 C 387.046875 816.25 388.796875 808.820312 389.199219 803.863281 C 390.550781 786.957031 392.046875 769.84375 391.859375 755.386719 C 391.667969 739.261719 366.09375 767.371094 340.6875 812.261719 C 313.359375 856.9375 294.324219 905.476562 273.011719 953.382812 C 260.898438 979.046875 253.195312 1007.515625 246.359375 1032.523438 C 234.753906 1075.382812 223.296875 1118.4375 217.429688 1163.050781 C 209.855469 1207.390625 202.003906 1252.152344 200.1875 1298.15625 C 198.207031 1325.253906 198.101562 1350.011719 197.148438 1376.074219 C 199.554688 1430.417969 201.242188 1484.949219 208.058594 1538.976562 C 217.703125 1592.726562 222.832031 1647.34375 239.25 1699.871094 C 244.566406 1720.996094 250.265625 1743.578125 255.898438 1765.949219 C 265.964844 1805.855469 275.101562 1836.351562 275.691406 1859.882812 C 287.003906 1887.296875 297.089844 1913.632812 311.902344 1945.140625 C 321.988281 1968.375 332.203125 1987.265625 340.242188 1997.269531 C 359.742188 2022.972656 384.515625 2055.621094 411.949219 2091.792969 C 437.460938 2129.082031 469.914062 2166.519531 501.609375 2203.03125 C 527.902344 2236.648438 567.277344 2282.253906 595.535156 2306.589844 C 597.496094 2308.214844 601.550781 2313.046875 604.546875 2316.589844 C 607.457031 2320.199219 610.601562 2324.105469 613.367188 2327.523438 C 626.722656 2343.625 638.667969 2354.621094 645.484375 2355.84375 C 650.863281 2356.773438 659.832031 2362.007812 674.246094 2375.027344 C 725.226562 2423.945312 773.972656 2448.214844 815.503906 2473.011719 C 850.363281 2491.734375 889.84375 2509.542969 932.660156 2533.179688 C 963.34375 2548.964844 994.847656 2560.339844 1024.222656 2572.390625 C 1053.46875 2584.84375 1082.609375 2593.8125 1111.203125 2600.4375 C 1144.335938 2608.710938 1179.574219 2621.289062 1216.039062 2626.820312 C 1226.652344 2628.78125 1239.96875 2632.539062 1252.90625 2637.878906 C 1262.019531 2641.632812 1260.078125 2644.460938 1247.542969 2642.476562 C 1199.222656 2636.230469 1152.945312 2624.054688 1104.070312 2610.714844 C 1079.445312 2604.132812 1054.417969 2596.683594 1035.152344 2590.394531 C 1007.742188 2582.585938 978.789062 2573.550781 947.621094 2562.664062 C 916.664062 2551.457031 885.496094 2534.847656 850.65625 2517.332031 C 837.449219 2510.492188 824.535156 2504.710938 816.9375 2502.75 C 790.875 2494.496094 750.761719 2469.804688 711.53125 2446.316406 C 654.175781 2407.695312 589.859375 2358.378906 549.449219 2328.242188 C 537.632812 2320.136719 518.574219 2301.480469 502.9375 2287.617188 C 484.03125 2272 467.382812 2253.617188 451.28125 2236.839844 C 444.527344 2229.917969 439.507812 2226.519531 433.914062 2221.917969 C 427.753906 2216.789062 432.542969 2232.027344 441.003906 2245.851562 C 456.386719 2272.273438 474.492188 2295 494.539062 2315.789062 C 557.699219 2386.742188 623.8125 2443.488281 701.972656 2505.070312 C 723.878906 2520.582031 746.160156 2536.386719 768.675781 2552.320312 C 791.742188 2567.433594 816.367188 2580.8125 840.445312 2595.015625 C 888.03125 2624.519531 939.667969 2647.351562 989.785156 2669.890625 C 1162.820312 2744.242188 1348.476562 2778.832031 1511.339844 2776.425781 C 1536.875 2776.023438 1562.554688 2775.621094 1588.828125 2775.222656 C 1614.992188 2772.898438 1641.730469 2770.496094 1669.519531 2768.023438 C 1738.945312 2764.691406 1801.621094 2748.355469 1861.675781 2735.652344 C 1920.78125 2718.21875 1977.695312 2701.019531 2032.8125 2677.660156 C 2066.746094 2662.230469 2099.09375 2647.523438 2132.332031 2632.433594 C 2164.066406 2614.957031 2196.628906 2597.019531 2232.417969 2577.332031 C 2257.507812 2564.816406 2275.824219 2548.691406 2295.957031 2534.996094 C 2435.082031 2435.742188 2552.472656 2311.441406 2639.792969 2176.480469 C 2665.027344 2136.132812 2690.859375 2095.546875 2710.1875 2052.328125 C 2720.273438 2031.222656 2730.253906 2010.289062 2740.046875 1989.777344 C 2747.558594 1968.417969 2754.902344 1947.460938 2762.015625 1927.160156 C 2768.050781 1908.316406 2773.914062 1889.953125 2779.570312 1872.226562 C 2783.117188 1853.972656 2786.535156 1836.351562 2789.828125 1819.425781 C 2794.933594 1785.46875 2801.410156 1755.648438 2799.46875 1727.832031 C 2797.527344 1679.359375 2802.382812 1624.042969 2789.277344 1590.933594 "/>
</g>
<path style=" stroke:none;fill-rule:nonzero;fill:rgb(97.648621%,85.879517%,5.879211%);fill-opacity:1;" d="M 2483.722656 830.390625 L 2483.402344 829.945312 L 2482.644531 829.039062 Z M 2483.722656 830.390625 "/>
<path style=" stroke:none;fill-rule:nonzero;fill:rgb(97.648621%,85.879517%,5.879211%);fill-opacity:1;" d="M 2661.800781 1474.4375 L 2661.675781 1477.5 L 2661.78125 1477.097656 Z M 2661.800781 1474.4375 "/>
<path style=" stroke:none;fill-rule:nonzero;fill:rgb(97.648621%,85.879517%,5.879211%);fill-opacity:1;" d="M 2661.800781 1474.523438 L 2661.78125 1477.097656 C 2661.84375 1476.359375 2661.90625 1475.472656 2661.96875 1474.734375 C 2661.925781 1474.4375 2661.84375 1474.859375 2661.800781 1474.523438 "/>
<path style=" stroke:none;fill-rule:nonzero;fill:rgb(97.648621%,85.879517%,5.879211%);fill-opacity:1;" d="M 2678.007812 1376.453125 C 2678.683594 1389.539062 2679.25 1403.339844 2680.265625 1413.492188 C 2680.453125 1415.367188 2680.664062 1416.296875 2680.769531 1415.855469 C 2680.855469 1415.390625 2680.898438 1412.035156 2680.835938 1410.914062 C 2679.863281 1395.214844 2678.894531 1379.660156 2678.027344 1365.734375 C 2677.457031 1363.558594 2677.523438 1367.378906 2678.007812 1376.453125 "/>
<path style=" stroke:none;fill-rule:nonzero;fill:rgb(97.648621%,85.879517%,5.879211%);fill-opacity:1;" d="M 2599.738281 1044.320312 C 2599.71875 1044.742188 2602.988281 1053.816406 2604.761719 1058.902344 L 2610.460938 1072.9375 C 2609.363281 1069.414062 2608.644531 1066.605469 2607.0625 1062.171875 C 2603.644531 1052.761719 2599.78125 1042.863281 2599.738281 1044.320312 "/>
</g>
</svg>
