<svg width="6600" height="216" viewBox="0 0 6600 216" fill="none" xmlns="http://www.w3.org/2000/svg">
<path fill-rule="evenodd" clip-rule="evenodd" d="M0 78.0746L22 89.5684C44 101.062 88 124.05 132 120.218C181.5 116.387 225.5 85.7371 269.5 62.7495C313.5 39.762 357.5 24.4369 401.5 24.4369C451 24.4369 495 39.762 539 62.7495C583 85.7371 627 116.387 671 135.543C720.5 154.7 764.5 162.362 808.5 147.037C852.5 131.712 896.5 93.3996 940.5 97.2309C990 101.062 1034 147.037 1078 154.7C1122 162.362 1166 131.712 1210 120.218C1259.5 108.725 1303.5 116.387 1347.5 97.2309C1391.5 78.0746 1435.5 32.0994 1479.5 12.9431C1529 -6.21318 1573 1.44934 1617 24.4369C1661 47.4245 1705 85.7371 1749 85.7371C1798.5 85.7371 1842.5 47.4245 1886.5 24.4369C1930.5 1.44934 1974.5 -6.21318 2018.5 5.2806C2068 16.7744 2112 47.4245 2156 66.5808C2200 85.7371 2244 93.3996 2288 108.725C2332 124.05 2381.5 147.037 2425.5 166.194C2469.5 185.35 2513.5 200.675 2557.5 200.675C2601.5 200.675 2651 185.35 2695 154.7C2739 124.05 2783 78.0746 2827 85.7371C2871 93.3996 2920.5 154.7 2964.5 162.362C3008.5 170.025 3052.5 124.05 3096.5 101.062C3140.5 78.0746 3190 78.0746 3234 78.0746C3278 78.0746 3322 78.0746 3366 66.5808C3410 55.087 3459.5 32.0994 3503.5 43.5932C3547.5 55.087 3591.5 101.062 3635.5 120.218C3679.5 139.375 3729 131.712 3773 108.725C3817 85.7371 3861 47.4245 3905 51.2557C3949 55.087 3998.5 101.062 4042.5 104.893C4086.5 108.725 4130.5 70.4121 4174.5 81.9058C4218.5 93.3996 4268 154.7 4312 181.519C4356 208.337 4400 200.675 4444 189.181C4488 177.687 4532 162.362 4581.5 143.206C4625.5 124.05 4669.5 101.062 4713.5 74.2433C4757.5 47.4245 4801.5 16.7744 4851 28.2682C4895 39.762 4939 93.3996 4983 112.556C5027 131.712 5071 116.387 5120.5 93.3996C5164.5 70.4121 5208.5 39.762 5252.5 51.2557C5296.5 62.7495 5340.5 116.387 5390 116.387C5434 116.387 5478 62.7495 5522 62.7495C5566 62.7495 5610 116.387 5659.5 127.881C5703.5 139.375 5747.5 108.725 5791.5 85.7371C5835.5 62.7495 5879.5 47.4245 5929 58.9183C5973 70.4121 6017 108.725 6061 112.556C6105 116.387 6149 85.7371 6198.5 93.3996C6242.5 101.062 6286.5 147.037 6330.5 162.362C6374.5 177.687 6418.5 162.362 6468 162.362C6512 162.362 6556 177.687 6578 185.35L6600 193.012V216H6578C6556 216 6512 216 6468 216C6418.5 216 6374.5 216 6330.5 216C6286.5 216 6242.5 216 6198.5 216C6149 216 6105 216 6061 216C6017 216 5973 216 5929 216C5879.5 216 5835.5 216 5791.5 216C5747.5 216 5703.5 216 5659.5 216C5610 216 5566 216 5522 216C5478 216 5434 216 5390 216C5340.5 216 5296.5 216 5252.5 216C5208.5 216 5164.5 216 5120.5 216C5071 216 5027 216 4983 216C4939 216 4895 216 4851 216C4801.5 216 4757.5 216 4713.5 216C4669.5 216 4625.5 216 4581.5 216C4532 216 4488 216 4444 216C4400 216 4356 216 4312 216C4268 216 4218.5 216 4174.5 216C4130.5 216 4086.5 216 4042.5 216C3998.5 216 3949 216 3905 216C3861 216 3817 216 3773 216C3729 216 3679.5 216 3635.5 216C3591.5 216 3547.5 216 3503.5 216C3459.5 216 3410 216 3366 216C3322 216 3278 216 3234 216C3190 216 3140.5 216 3096.5 216C3052.5 216 3008.5 216 2964.5 216C2920.5 216 2871 216 2827 216C2783 216 2739 216 2695 216C2651 216 2601.5 216 2557.5 216C2513.5 216 2469.5 216 2425.5 216C2381.5 216 2332 216 2288 216C2244 216 2200 216 2156 216C2112 216 2068 216 2018.5 216C1974.5 216 1930.5 216 1886.5 216C1842.5 216 1798.5 216 1749 216C1705 216 1661 216 1617 216C1573 216 1529 216 1479.5 216C1435.5 216 1391.5 216 1347.5 216C1303.5 216 1259.5 216 1210 216C1166 216 1122 216 1078 216C1034 216 990 216 940.5 216C896.5 216 852.5 216 808.5 216C764.5 216 720.5 216 671 216C627 216 583 216 539 216C495 216 451 216 401.5 216C357.5 216 313.5 216 269.5 216C225.5 216 181.5 216 132 216C88 216 44 216 22 216H0V78.0746Z" fill="#F7F3AD"/>
</svg>
